<svg width="95" height="86" viewBox="0 0 95 86" fill="none" xmlns="http://www.w3.org/2000/svg">
<path d="M91 40.4635C90.4042 35.6504 88.2366 31.1722 84.8368 27.731C81.437 24.2895 76.9972 22.0796 72.2139 21.4474C70.1514 15.6416 66.1244 10.75 60.8372 7.62598C55.5501 4.502 49.3389 3.34434 43.289 4.35702C37.2394 5.36966 31.7363 8.4882 27.7415 13.1659C23.7467 17.8436 21.5145 23.7838 21.4349 29.9484C16.8108 29.9484 12.3762 31.7939 9.10654 35.0804C5.83685 38.3674 4 42.8259 4 47.4742C4 52.1221 5.83685 56.5797 9.10654 59.8663C12.3762 63.1532 16.8108 65 21.4349 65H47.5872" stroke="#373737" stroke-width="8" stroke-linecap="round" stroke-linejoin="round"/>
<path d="M77 82V47" stroke="#373737" stroke-width="8" stroke-linecap="round" stroke-linejoin="round"/>
<path d="M63 61L77.0002 47L91 61" stroke="#373737" stroke-width="8" stroke-linecap="round" stroke-linejoin="round"/>
</svg>
